<svg viewBox="0 0 640 512" xmlns="http://www.w3.org/2000/svg"><path d="m180.5 74.262c-99.687 0-180.5 81.371-180.5 181.738s80.819 181.738 180.5 181.738 180.5-81.365 180.5-181.738-80.809-181.738-180.5-181.738zm288.25 10.646c-49.845 0-90.245 76.619-90.245 171.095s40.406 171.1 90.251 171.1 90.251-76.619 90.251-171.1h-.007c0-94.503-40.4-171.095-90.248-171.095zm139.506 17.821c-17.526 0-31.735 68.628-31.735 153.274s14.2 153.274 31.735 153.274 31.744-68.646 31.744-153.277c0-84.649-14.215-153.271-31.742-153.271z" fill="#fff"/></svg>